# xmcd
#
# Track frame offsets:
# 182
# 15642
# 25330
# 37135
# 47135
# 57887
# 76475
# 88942
# 99340
# 111532
# 124205
# 134615
# 144667
# 159635
# 172120
# 183440
# 194912
# 206570
# 217290
# 227615
# 237315
# 247265
# 258260
# 266785
# 276295
# 287842
# 297225
# 307100
#
# Disc length: 4318 seconds
#
# Revision: 0
# Processed by: cddbd v1.5PL3 Copyright (c) Steve Scherf et al.
# Submitted via: plextools 2.11
#
DISCID=cc10dc1c
DTITLE=Billy Lee Riley - Everybody Let's Rock
DYEAR=1900
DGENRE=Rock
TTITLE0=Billy Lee Riley - Everybody Let's Rock
TTITLE1=Billy Lee Riley - Rockin' 50's
TTITLE2=Billy Lee Riley - Rockabilly Hall
TTITLE3=Billy Lee Riley - Rockin' On A Ufo
TTITLE4=Billy Lee Riley - My Gal Is Alright
TTITLE5=Billy Lee Riley - Rockin' Rollin' and Ballin' The Jack
TTITLE6=Billy Lee Riley - Gotta Catch My Girl
TTITLE7=Billy Lee Riley - Rock And Roll Money
TTITLE8=Billy Lee Riley - Rock My Baby
TTITLE9=Billy Lee Riley - HAng Up My Rock 'n' Roll Shoes
TTITLE10=Billy Lee Riley - Good Rockin' Tonight
TTITLE11=Billy Lee Riley - Go Go Go
TTITLE12=Billy Lee Riley - Shake, Rattle And Roll
TTITLE13=Billy Lee Riley - Mean Woman Blues
TTITLE14=Billy Lee Riley - Nightmare Mash
TTITLE15=Billy Lee Riley - Everybody's Twisting
TTITLE16=Billy Lee Riley - Flip, Flop And Fly
TTITLE17=Billy Lee Riley - Teenage Letter
TTITLE18=Billy Lee Riley - Fast Livin'
TTITLE19=Billy Lee Riley - Hill Country Music
TTITLE20=Billy Lee Riley - Fireball Mail
TTITLE21=Billy Lee Riley - Catfish
TTITLE22=Billy Lee Riley - Rockin' On The Moon
TTITLE23=Billy Lee Riley - Is That All To The Ball ?
TTITLE24=Billy Lee Riley - Red Hot
TTITLE25=Billy Lee Riley - Flying Saucer's Rock and Roll
TTITLE26=Billy Lee Riley - Rock With Me Baby
TTITLE27=Billy Lee Riley - The Way It Was Back Then
EXTD=
EXTT0=
EXTT1=
EXTT2=
EXTT3=
EXTT4=
EXTT5=
EXTT6=
EXTT7=
EXTT8=
EXTT9=
EXTT10=
EXTT11=
EXTT12=
EXTT13=
EXTT14=
EXTT15=
EXTT16=
EXTT17=
EXTT18=
EXTT19=
EXTT20=
EXTT21=
EXTT22=
EXTT23=
EXTT24=
EXTT25=
EXTT26=
EXTT27=
PLAYORDER=
